<?xml version="1.0" encoding="UTF-8" standalone="no"?>
<!-- Created with Inkscape (http://www.inkscape.org/) -->

<svg
   version="1.1"
   id="svg9"
   width="880"
   height="880"
   viewBox="0 0 880 880"
   sodipodi:docname="axe-stuck-in-wood-log-publicdomainvectors.org.svg"
   inkscape:version="1.2 (dc2aedaf03, 2022-05-15)"
   xmlns:inkscape="http://www.inkscape.org/namespaces/inkscape"
   xmlns:sodipodi="http://sodipodi.sourceforge.net/DTD/sodipodi-0.dtd"
   xmlns="http://www.w3.org/2000/svg"
   xmlns:svg="http://www.w3.org/2000/svg">
  <defs
     id="defs13">
    <clipPath
       clipPathUnits="userSpaceOnUse"
       id="clipPath25">
      <path
         d="M 0,660 H 660 V 0 H 0 Z"
         id="path23" />
    </clipPath>
  </defs>
  <sodipodi:namedview
     id="namedview11"
     pagecolor="#ffffff"
     bordercolor="#000000"
     borderopacity="0.25"
     inkscape:showpageshadow="2"
     inkscape:pageopacity="0.0"
     inkscape:pagecheckerboard="0"
     inkscape:deskcolor="#d1d1d1"
     showgrid="false"
     inkscape:zoom="0.925"
     inkscape:cx="439.45946"
     inkscape:cy="440"
     inkscape:window-width="1920"
     inkscape:window-height="1017"
     inkscape:window-x="-8"
     inkscape:window-y="-8"
     inkscape:window-maximized="1"
     inkscape:current-layer="g17">
    <inkscape:page
       x="0"
       y="0"
       id="page15"
       width="880"
       height="880" />
  </sodipodi:namedview>
  <g
     id="g17"
     inkscape:groupmode="layer"
     inkscape:label="Page 1"
     transform="matrix(1.3333333,0,0,-1.3333333,0,880)">
    <g
       id="g19">
      <g
         id="g21"
         clip-path="url(#clipPath25)">
        <g
           id="g27"
           transform="translate(318.458,103.5244)">
          <path
             d="m 0,0 c 116.694,0 211.872,39.761 211.872,88.51 0,48.75 -95.178,88.51 -211.872,88.51 -116.693,0 -211.871,-39.76 -211.871,-88.51 C -211.871,39.761 -116.693,0 0,0"
             style="fill:#9ac421;fill-opacity:1;fill-rule:evenodd;stroke:none"
             id="path29" />
        </g>
        <g
           id="g31"
           transform="translate(273.0869,524.6055)">
          <path
             d="m 0,0 c 58.624,70.772 123.489,120.157 203.889,116.313 10.124,-0.484 15.979,-10.404 13.248,-22.437 -0.5,-2.199 -1,-4.399 -1.498,-6.6 -2.484,-10.933 -8.137,-20.329 -16.663,-27.684 -8.528,-7.36 -17.553,-10.629 -26.6,-9.641 -24.831,2.71 -48.554,-6.702 -71.767,-21.684 C 92.132,22.794 85.783,15.156 81.53,5.315 77.518,-3.977 71.54,-12.171 63.682,-19.138 52.612,-28.947 40.893,-33.587 28.868,-32.921 16.508,-32.235 4.062,-31.874 -9.389,-35.291 -4.654,-17.498 -4.732,-17.792 0,0"
             style="fill:#da8a38;fill-opacity:1;fill-rule:evenodd;stroke:none"
             id="path33" />
        </g>
        <g
           id="g35"
           transform="translate(490.876,625.1445)">
          <path
             d="m 0,0 c 0.08,-2.109 -0.126,-4.348 -0.652,-6.663 -0.5,-2.199 -1,-4.4 -1.498,-6.6 -2.484,-10.933 -8.137,-20.329 -16.664,-27.684 -8.527,-7.36 -17.552,-10.629 -26.599,-9.641 -24.831,2.71 -48.554,-6.702 -71.767,-21.684 -8.478,-5.473 -14.826,-13.111 -19.079,-22.952 -4.013,-9.292 -9.99,-17.486 -17.848,-24.453 -11.07,-9.809 -22.79,-14.449 -34.814,-13.783 -6.529,0.363 -13.081,0.634 -19.791,0.306 -2.403,15.092 -4.748,48.796 9.289,45.708 16.368,-3.599 23.263,-33.366 41.075,-7.455 20.991,30.535 25.861,41.716 64.272,51.582 28.493,6.353 42.703,8.258 69.476,22.045 C -10.595,-13.807 -4.691,-7.412 0,0"
             style="fill:#c6762c;fill-opacity:1;fill-rule:evenodd;stroke:none"
             id="path37" />
        </g>
        <g
           id="g39"
           transform="translate(350.2061,146.6387)">
          <path
             d="m 0,0 c -39.014,3.639 -21.128,-26.795 -67.227,-14.408 -20.427,5.783 -19.842,4.986 -40.604,3.719 -11.012,-0.672 -22.981,3.182 -33.531,6.179 -14.57,4.207 -32.326,-2.102 -44.454,13.715 -9.477,12.36 -2.258,23.074 -17.85,42.868 -5.865,7.446 -8.424,12.688 -8.139,18.559 V 236.445 L 69.44,233.257 V 67.426 c 0.022,-0.581 0.022,-1.155 0,-1.727 V 65.696 C 69.35,63.354 68.904,61.029 68.175,58.209 63.404,43.385 49.877,37.027 42.549,22.811 35.741,9.597 33.997,1.927 17.092,-0.185 11.384,-0.898 5.705,-0.47 0,0"
             style="fill:#753f1b;fill-opacity:1;fill-rule:evenodd;stroke:none"
             id="path41" />
        </g>
        <g
           id="g43"
           transform="translate(350.2061,146.6387)">
          <path
             d="m 0,0 c -39.014,3.639 -21.128,-26.795 -67.227,-14.408 -20.427,5.783 -19.842,4.986 -40.604,3.719 -11.012,-0.672 -22.981,3.182 -33.531,6.179 -14.57,4.207 -32.326,-2.102 -44.454,13.715 -3.945,5.143 -4.996,10.004 -6.005,15.35 20.293,-10.012 33.141,0.067 57.368,7.231 18.281,5.407 37.769,0.788 55.891,-3.254 17.785,-4.14 26.134,-9.307 42.986,0.686 9.93,6.84 22.496,15.703 27.566,26.891 2.455,6.337 2.968,12.247 3.311,18.991 0.914,17.896 -0.622,30.988 1.694,49.523 4.869,38.945 -17.887,22.935 -40.034,21.408 -21.695,-1.493 -29.051,13.342 -11.417,25.391 16.053,10.968 40.598,19.623 60.022,22.361 9.456,1.34 26.336,2.651 33.069,9.693 5.589,5.845 7.47,17.621 9.241,30.026 L 69.44,233.257 V 67.426 c 0.022,-0.581 0.022,-1.155 0,-1.727 V 65.696 C 69.35,63.354 68.904,61.029 68.175,58.209 63.404,43.385 49.877,37.027 42.549,22.811 35.741,9.597 33.997,1.927 17.092,-0.185 11.384,-0.898 5.705,-0.47 0,0"
             style="fill:#663517;fill-opacity:1;fill-rule:evenodd;stroke:none"
             id="path45" />
        </g>
        <g
           id="g47"
           transform="translate(350.2061,146.6387)">
          <path
             d="m 0,0 c -39.014,3.639 -21.128,-26.795 -67.227,-14.408 -20.427,5.783 -19.842,4.986 -40.604,3.719 -4.69,-0.286 -9.552,0.248 -14.403,1.188 20.773,6.703 29.278,6.103 52.025,5.193 11.317,-0.254 20.299,-0.139 30.057,6.11 17.377,11.129 14.355,12.552 36.287,18.763 33.042,9.356 35.777,17.521 46.624,49.903 9.526,28.239 -0.209,57.402 10.359,78.547 11.505,20.099 13.838,22.312 14.57,45.615 0.174,5.555 0.5,12.554 1.752,19.42 V 67.426 c 0.022,-0.581 0.022,-1.155 0,-1.727 V 65.696 C 69.35,63.354 68.904,61.029 68.175,58.209 63.404,43.385 49.877,37.027 42.549,22.811 35.741,9.597 33.997,1.927 17.092,-0.185 11.384,-0.898 5.705,-0.47 0,0"
             style="fill:#522b17;fill-opacity:1;fill-rule:evenodd;stroke:none"
             id="path49" />
        </g>
        <g
           id="g51"
           transform="translate(350.2061,314.1982)">
          
        </g>
        <g
           id="g55"
           transform="translate(321.8955,320.2334)">
          <path
             d="m 0,0 c -15.769,-11.744 -14.639,-14.401 -36.242,-8.171 -20.57,6.262 -21.917,4.936 -42.439,4.303 -10.198,-0.315 -18.988,3.02 -28.626,6.099 -15.873,5.14 -31.875,-6.238 -37.81,20.18 -2.863,12.755 -3.909,17.096 -8.655,29.387 -5.171,13.391 -4.156,15.637 2.734,27.91 11.957,20.561 31.803,23.629 51.542,33.383 24.264,12.393 35.395,6.005 60.878,6.075 l 5.796,0.016 c 12.219,0.2 23.596,-0.913 35.839,-1.269 C 35.002,116.988 35.076,96.788 58.372,80.068 73.34,69.324 77.727,65.392 67.398,47.061 64.211,41.405 61.922,37.403 59.333,31.34 48.159,2.923 49.096,10.165 22.332,8.132 13.4,7.453 7.303,5.157 0,0"
             style="fill:#e1a04a;fill-opacity:1;fill-rule:evenodd;stroke:none"
             id="path57" />
        </g>
        <g
           id="g59"
           transform="translate(321.8955,320.2334)">
          <path
             d="m 0,0 c -15.769,-11.744 -14.639,-14.401 -36.242,-8.171 -20.57,6.262 -21.917,4.936 -42.439,4.303 -10.198,-0.315 -18.988,3.02 -28.626,6.099 -15.873,5.14 -31.875,-6.238 -37.81,20.18 -2.863,12.755 -3.909,17.096 -8.655,29.387 -1.89,4.895 -2.954,8.301 -3.205,11.253 0.358,3.941 2.352,7.613 5.939,14.002 11.957,20.559 31.803,23.629 51.542,33.383 24.264,12.392 35.395,6.004 60.878,6.074 l 5.796,0.017 c 12.219,0.2 23.596,-0.914 35.839,-1.268 C 35.002,114.331 35.076,94.132 58.372,77.412 67.176,71.094 72.316,67.129 72.958,61.205 72.592,57.543 70.787,53.077 67.398,47.061 64.211,41.405 61.922,37.403 59.333,31.34 48.159,2.923 49.096,10.165 22.332,8.132 13.4,7.453 7.303,5.157 0,0"
             style="fill:#f7af59;fill-opacity:1;fill-rule:evenodd;stroke:none"
             id="path61" />
        </g>
        <g
           id="g63"
           transform="translate(321.8955,320.2334)">
          <path
             d="m 0,0 c -15.769,-11.744 -14.639,-14.401 -36.242,-8.171 -10.629,3.235 -16.126,4.445 -21.788,4.771 -17.855,14.629 -28.475,32.926 -28.475,52.784 0,27.047 19.691,51.206 50.557,67.135 l 3.126,0.008 c 12.219,0.2 23.596,-0.914 35.839,-1.268 C 35.002,114.331 35.076,94.132 58.372,77.412 67.176,71.094 72.316,67.129 72.958,61.205 72.592,57.543 70.787,53.077 67.398,47.061 64.211,41.405 61.922,37.403 59.333,31.34 48.159,2.923 49.096,10.165 22.332,8.132 13.4,7.453 7.303,5.157 0,0"
             style="fill:#fabd74;fill-opacity:1;fill-rule:evenodd;stroke:none"
             id="path65" />
        </g>
        
        <g
           id="g75"
           transform="translate(293.8584,397.4336)">
          <path
             d="m 0,0 c -4.992,2.946 -11.926,4.768 -19.616,4.768 -7.69,0 -14.623,-1.822 -19.616,-4.768 -4.747,-2.799 -7.684,-6.588 -7.684,-10.696 0,-4.109 2.937,-7.895 7.684,-10.696 4.993,-2.944 11.926,-4.768 19.616,-4.768 15.077,0 27.301,6.924 27.301,15.464 C 7.685,-6.588 4.747,-2.799 0,0 m -19.616,7.904 c -8.253,0 -15.754,-1.991 -21.208,-5.209 -5.701,-3.362 -9.228,-8.093 -9.228,-13.391 0,-5.297 3.527,-10.027 9.228,-13.391 5.455,-3.217 12.955,-5.208 21.208,-5.208 16.81,0 30.435,8.327 30.435,18.599 0,5.298 -3.525,10.029 -9.225,13.391 -5.454,3.218 -12.957,5.209 -21.21,5.209 m 8.591,-11.991 c -2.45,1.443 -5.869,2.339 -9.676,2.339 -3.809,0 -7.229,-0.896 -9.678,-2.339 -2.203,-1.3 -3.565,-3.014 -3.565,-4.832 0,-1.818 1.362,-3.531 3.565,-4.83 2.449,-1.445 5.869,-2.338 9.678,-2.338 3.807,0 7.226,0.893 9.676,2.338 2.203,1.299 3.566,3.012 3.566,4.83 0,1.818 -1.363,3.532 -3.566,4.832 m -9.676,5.474 c -4.373,0 -8.359,-1.062 -11.27,-2.779 -3.156,-1.863 -5.109,-4.519 -5.109,-7.527 0,-3.008 1.953,-5.664 5.109,-7.525 2.911,-1.718 6.897,-2.781 11.27,-2.781 4.371,0 8.357,1.063 11.268,2.781 3.156,1.861 5.109,4.517 5.109,7.525 0,3.008 -1.953,5.664 -5.109,7.527 -2.911,1.717 -6.897,2.779 -11.268,2.779 m -24.773,7.584 c -1.371,-1.84 -2.644,-3.714 -3.811,-5.621 0.39,0.25 0.789,0.497 1.198,0.737 7.537,4.447 17.984,7.197 29.559,7.197 11.57,0 22.019,-2.75 29.554,-7.197 7.291,-4.3 11.802,-10.162 11.802,-16.56 0,-6.397 -4.511,-12.257 -11.802,-16.559 -7.535,-4.447 -17.984,-7.197 -29.554,-7.197 -11.575,0 -22.022,2.75 -29.559,7.197 -4.402,2.596 -7.788,5.761 -9.783,9.271 -0.232,-1.58 -0.395,-3.172 -0.488,-4.775 2.218,-2.69 5.163,-5.119 8.679,-7.193 7.997,-4.718 19.013,-7.638 31.151,-7.638 12.133,0 23.15,2.92 31.148,7.638 8.243,4.865 13.343,11.668 13.343,19.256 0,7.588 -5.099,14.392 -13.343,19.256 -7.998,4.719 -19.015,7.639 -31.148,7.639 -10.131,0 -19.48,-2.034 -26.946,-5.451 m 8.808,10.038 c -1.392,-1.363 -2.717,-2.752 -3.984,-4.165 7.06,1.9 14.919,2.958 23.207,2.958 15.453,0 29.415,-3.68 39.496,-9.627 9.834,-5.803 15.919,-13.736 15.919,-22.424 0,-8.69 -6.085,-16.625 -15.919,-22.426 -10.081,-5.948 -24.043,-9.628 -39.496,-9.628 -15.455,0 -29.416,3.68 -39.497,9.628 -0.302,0.177 -0.598,0.358 -0.892,0.539 0.209,-1.367 0.465,-2.725 0.773,-4.074 10.405,-5.724 24.332,-9.228 39.616,-9.228 16.017,0 30.545,3.847 41.089,10.068 10.788,6.364 17.46,15.241 17.46,25.121 0,9.877 -6.672,18.755 -17.46,25.12 -10.544,6.219 -25.072,10.066 -41.089,10.066 -6.733,0 -13.203,-0.679 -19.223,-1.928 m 9.162,7.937 c -1.547,-1.192 -3.041,-2.414 -4.487,-3.659 5.023,0.674 10.256,1.031 15.634,1.031 19.335,0 36.811,-4.606 49.436,-12.054 12.378,-7.304 20.036,-17.312 20.036,-28.29 0,-10.981 -7.658,-20.988 -20.036,-28.291 -12.625,-7.448 -30.101,-12.055 -49.436,-12.055 -13.846,0 -26.74,2.362 -37.579,6.439 0.558,-1.337 1.164,-2.662 1.822,-3.973 10.55,-3.564 22.758,-5.603 35.757,-5.603 19.898,0 37.943,4.777 51.03,12.496 13.331,7.866 21.577,18.816 21.577,30.987 0,12.168 -8.246,23.118 -21.577,30.984 -13.087,7.722 -31.132,12.497 -51.03,12.497 -3.791,0 -7.513,-0.175 -11.147,-0.509 m 10.131,7.01 c -1.729,-1.073 -3.414,-2.171 -5.051,-3.299 2.357,0.118 4.742,0.179 7.152,0.179 23.219,0 44.209,-5.536 59.377,-14.486 14.922,-8.803 24.154,-20.883 24.154,-34.155 0,-13.27 -9.232,-25.349 -24.154,-34.153 -15.168,-8.95 -36.158,-14.486 -59.377,-14.486 -11.133,0 -21.753,1.274 -31.466,3.587 0.915,-1.303 1.879,-2.586 2.889,-3.853 8.948,-1.858 18.566,-2.869 28.577,-2.869 23.781,0 45.34,5.703 60.971,14.924 15.875,9.367 25.695,22.391 25.695,36.85 0,14.46 -9.82,27.485 -25.695,36.851 -15.631,9.222 -37.19,14.925 -60.971,14.925 -0.703,0 -1.404,-0.006 -2.101,-0.015 m 11.387,6.336 C 18.413,39.122 40.364,32.785 56.726,23.133 75.145,12.265 86.539,-2.831 86.539,-19.582 86.539,-36.33 75.145,-51.428 56.726,-62.296 38.551,-73.019 13.478,-79.65 -14.186,-79.65 c -6.169,0 -12.212,0.329 -18.075,0.961 -1.374,1.192 -2.7,2.405 -3.977,3.639 7.087,-0.958 14.468,-1.465 22.052,-1.465 27.1,0 51.606,6.464 69.318,16.914 17.466,10.305 28.27,24.46 28.27,40.019 0,15.561 -10.804,29.715 -28.27,40.019 -17.151,10.12 -40.671,16.499 -66.745,16.896 1.834,1.016 3.708,2.004 5.627,2.959"
             style="fill:#e9a54b;fill-opacity:1;fill-rule:evenodd;stroke:none"
             id="path77" />
        </g>
        <g
           id="g79"
           transform="translate(200.0215,425.4893)">
          <path
             d="m 0,0 15.534,-15.535 -21.849,12.68 c 2.062,1 4.171,1.939 6.315,2.855 m 77.135,15.419 -1.925,-28.28 -3.139,28.529 c 1.628,-0.101 3.313,-0.188 5.064,-0.249 m 81.839,-16.186 -31.113,-20.145 28.286,23.098 c 0.964,-0.947 1.901,-1.933 2.827,-2.953 m 25.457,-71.728 -44.119,15.366 46.908,-9.614 c -0.947,-1.819 -1.857,-3.677 -2.789,-5.752 m -133.07,-37.708 2.932,23.905 2.907,-23.697 c -1.763,-0.041 -3.674,-0.117 -5.839,-0.208 m -79.516,37.474 46.236,10.508 -44.663,-17.098 c -0.562,2.453 -1.066,4.592 -1.573,6.59"
             style="fill:#985422;fill-opacity:1;fill-rule:evenodd;stroke:none"
             id="path81" />
        </g>
        <g
           id="g83"
           transform="translate(147.9834,304.957)">
          <path
             d="m 0,0 c 9.168,15.016 28.278,-7.689 32.682,-17.736 9.168,-22.304 10.662,-65.944 -6.789,-84.474 -11.366,-12.069 -24.1,-6.309 -27.123,10.077 -2.895,15.697 -4.916,78.183 0.559,90.774 z"
             style="fill:#985422;fill-opacity:1;fill-rule:evenodd;stroke:none"
             id="path85" />
        </g>
        <g
           id="g87"
           transform="translate(351.542,467.4736)">
          <path
             d="m 0,0 c -29.022,-2.451 -35.488,12.148 -49.445,51.946 -2.166,14.155 -19.942,29.119 -33.773,20.267 l -56.118,-35.915 c -7.502,-4.802 -9.926,-14.613 -5.529,-22.356 12.428,-21.88 41.603,-75.451 45.003,-119.978 l 11.595,-7.594 42.773,24.775 C -27.685,-67.496 -12.516,-37.888 0,0"
             style="fill:#2f2d2d;fill-opacity:1;fill-rule:evenodd;stroke:none"
             id="path89" />
        </g>
        <g
           id="g91"
           transform="translate(210.4512,485.3516)">
          <path
             d="M 0,0 C 7.146,3.965 18.469,-2.783 25.285,-15.073 32.103,-27.362 31.834,-40.54 24.687,-44.504 17.541,-48.47 6.219,-41.721 -0.6,-29.432 -7.416,-17.142 -7.148,-3.965 0,0"
             style="fill:#da8a38;fill-opacity:1;fill-rule:evenodd;stroke:none"
             id="path93" />
        </g>
        <g
           id="g95"
           transform="translate(351.542,467.4736)">
          <path
             d="m 0,0 c -29.022,-2.451 -35.488,12.148 -49.445,51.946 -1.822,11.912 -14.698,24.395 -26.976,22.778 6.236,-4.797 11.697,-11.568 11.48,-24.001 -0.623,-27.498 -3.159,-37.344 -23.617,-55.771 -37.34,-33.629 13.062,-26.819 34.39,-22.177 39.154,8.527 32.107,-20.389 20.896,-45.047 C -20.641,-52.988 -9.549,-28.904 0,0"
             style="fill:#110f0d;fill-opacity:1;fill-rule:evenodd;stroke:none"
             id="path97" />
        </g>
        <g
           id="g99"
           transform="translate(351.542,467.4736)">
          <path
             d="M 0,0 C -5.777,-0.486 -10.659,-0.297 -14.886,0.631 -31.203,-45.598 -52.519,-86.83 -88.267,-113.63 l 42.773,24.775 C -27.685,-67.496 -12.516,-37.888 0,0"
             style="fill:#cdcccb;fill-opacity:1;fill-rule:evenodd;stroke:none"
             id="path101" />
        </g>
        <g
           id="g103"
           transform="translate(351.542,467.4736)">
          <path
             d="m 0,0 c -5.777,-0.486 -10.659,-0.297 -14.886,0.631 -3.858,-10.93 -7.995,-21.58 -12.536,-31.825 6.551,-8.546 1.167,-25.646 -5.85,-41.078 C -20.641,-52.988 -9.549,-28.904 0,0"
             style="fill:#b2b1b0;fill-opacity:1;fill-rule:evenodd;stroke:none"
             id="path105" />
        </g>
      </g>
    </g>
  </g>
</svg>
